<?xml version="1.0" encoding="UTF-8" standalone="no"?>
<svg
   xmlns:dc="http://purl.org/dc/elements/1.1/"
   xmlns:cc="http://creativecommons.org/ns#"
   xmlns:rdf="http://www.w3.org/1999/02/22-rdf-syntax-ns#"
   xmlns:svg="http://www.w3.org/2000/svg"
   xmlns="http://www.w3.org/2000/svg"
   version="1.1"
   id="svg2"
   viewBox="0 0 77.4325 80.2325"
   height="22.643394mm"
   width="21.853172mm">
  <defs
     id="defs4">
    <clipPath
       clipPathUnits="userSpaceOnUse"
       id="clipPath4193">
      <path
         d="m 647.895,356.435 c -0.811,-0.548 -1.47,-1.283 -2.003,-2.105 l 0,0 0,0.306 c -1.281,-2.07 -3.647,-3.461 -6.168,-3.461 l 0,0 c -1.008,0 -0.989,-1.397 0,-1.397 l 0,0 c 2.615,0 4.887,-1.392 6.168,-3.462 l 0,0 0,0.093 c 1.301,-1.972 3.529,-3.277 6.07,-3.277 l 0,0 c 4.016,0 7.271,3.256 7.271,7.272 l 0,0 c 0,4.017 -3.255,7.272 -7.271,7.272 l 0,0 c -1.507,0 -2.907,-0.457 -4.067,-1.241 m -49.414,-6.031 c 0,-4.016 3.255,-7.272 7.272,-7.272 l 0,0 c 4.017,0 7.273,3.256 7.273,7.272 l 0,0 c 0,4.017 -3.256,7.272 -7.273,7.272 l 0,0 c -4.017,0 -7.272,-3.255 -7.272,-7.272 m 25.677,-19.644 0,0.219 c -1.282,-2.07 -3.554,-3.462 -6.168,-3.462 l 0,0 c -2.615,0 -4.888,1.391 -6.169,3.461 l 0,0 0,-0.092 c -1.3,1.972 -3.529,3.276 -6.068,3.276 l 0,0 c -4.018,0 -7.272,-3.255 -7.272,-7.272 l 0,0 c 0,-4.016 3.254,-7.272 7.272,-7.272 l 0,0 c 1.505,0 2.905,0.458 4.065,1.242 l 0,0 c 0.812,0.548 1.471,1.283 2.003,2.105 l 0,0 0,-0.306 c 1.281,2.07 3.554,3.461 6.169,3.461 l 0,0 c 2.614,0 4.886,-1.391 6.168,-3.462 l 0,0 0,0.362 c 1.288,-2.039 3.546,-3.402 6.136,-3.402 l 0,0 c 4.016,0 7.271,3.256 7.271,7.272 l 0,0 c 0,4.017 -3.255,7.272 -7.271,7.272 l 0,0 c -2.59,0 -4.848,-1.364 -6.136,-3.402 m 24.155,-24.592 c -3.162,-3.072 -5.454,-4.593 -20.476,-4.593 l 0,0 c -0.143,0 -0.274,-0.011 -0.415,-0.016 l 0,0 c -0.4,-0.112 -0.7,-0.463 -0.7,-0.899 l 0,0 c 0,-0.523 0.425,-0.948 0.949,-0.948 l 0,0 c 15.393,0 17.876,-1.931 20.573,-4.37 l 0,0 c 1.329,-1.296 2.968,-1.852 4.912,-1.852 l 0,0 c 4.015,0 7.271,3.256 7.271,7.272 l 0,0 c 0,4.017 -3.256,7.272 -7.271,7.272 l 0,0 c -1.867,0 -3.56,-0.707 -4.843,-1.866 m -49.832,-5.406 c 0,-4.016 3.255,-7.272 7.271,-7.272 l 0,0 c 1.507,0 2.907,0.458 4.066,1.242 l 0,0 c 0.812,0.548 1.471,1.282 2.004,2.105 l 0,0 0,-0.307 c 1.281,2.071 3.647,3.462 6.168,3.462 l 0,0 c 1.007,0 0.989,1.397 0,1.397 l 0,0 c -2.615,0 -4.887,1.391 -6.168,3.461 l 0,0 0,-0.092 c -1.301,1.971 -3.53,3.276 -6.07,3.276 l 0,0 c -4.016,0 -7.271,-3.255 -7.271,-7.272"
         id="path4195" />
    </clipPath>
    <linearGradient
       x1="0"
       y1="0"
       x2="1"
       y2="0"
       gradientUnits="userSpaceOnUse"
       gradientTransform="matrix(68.749397,39.692482,39.692482,-68.749397,594.63147,305.47858)"
       spreadMethod="pad"
       id="linearGradient4201">
      <stop
         style="stop-opacity:1;stop-color:#214e82"
         offset="0"
         id="stop4225" />
      <stop
         style="stop-opacity:1;stop-color:#146c9d"
         offset="0.437676"
         id="stop4227" />
      <stop
         style="stop-opacity:1;stop-color:#0197c5"
         offset="1"
         id="stop4229" />
    </linearGradient>
  </defs>
  <metadata
     id="metadata7">
    <rdf:RDF>
      <cc:Work
         rdf:about="">
        <dc:format>image/svg+xml</dc:format>
        <dc:type
           rdf:resource="http://purl.org/dc/dcmitype/StillImage" />
        <dc:title></dc:title>
      </cc:Work>
    </rdf:RDF>
  </metadata>
  <g
     id="layer1"
     transform="translate(-641.63108,-821.6539)">
    <g
       id="g4175"
       transform="matrix(1.25,0,0,-1.25,-106.47017,1268.7489)">
      <g
         id="g4189">
        <path
           d="m 647.895,356.435 c -0.811,-0.548 -1.47,-1.283 -2.003,-2.105 l 0,0 0,0.306 c -1.281,-2.07 -3.647,-3.461 -6.168,-3.461 l 0,0 c -1.008,0 -0.989,-1.397 0,-1.397 l 0,0 c 2.615,0 4.887,-1.392 6.168,-3.462 l 0,0 0,0.093 c 1.301,-1.972 3.529,-3.277 6.07,-3.277 l 0,0 c 4.016,0 7.271,3.256 7.271,7.272 l 0,0 c 0,4.017 -3.255,7.272 -7.271,7.272 l 0,0 c -1.507,0 -2.907,-0.457 -4.067,-1.241 m -49.414,-6.031 c 0,-4.016 3.255,-7.272 7.272,-7.272 l 0,0 c 4.017,0 7.273,3.256 7.273,7.272 l 0,0 c 0,4.017 -3.256,7.272 -7.273,7.272 l 0,0 c -4.017,0 -7.272,-3.255 -7.272,-7.272 m 25.677,-19.644 0,0.219 c -1.282,-2.07 -3.554,-3.462 -6.168,-3.462 l 0,0 c -2.615,0 -4.888,1.391 -6.169,3.461 l 0,0 0,-0.092 c -1.3,1.972 -3.529,3.276 -6.068,3.276 l 0,0 c -4.018,0 -7.272,-3.255 -7.272,-7.272 l 0,0 c 0,-4.016 3.254,-7.272 7.272,-7.272 l 0,0 c 1.505,0 2.905,0.458 4.065,1.242 l 0,0 c 0.812,0.548 1.471,1.283 2.003,2.105 l 0,0 0,-0.306 c 1.281,2.07 3.554,3.461 6.169,3.461 l 0,0 c 2.614,0 4.886,-1.391 6.168,-3.462 l 0,0 0,0.362 c 1.288,-2.039 3.546,-3.402 6.136,-3.402 l 0,0 c 4.016,0 7.271,3.256 7.271,7.272 l 0,0 c 0,4.017 -3.255,7.272 -7.271,7.272 l 0,0 c -2.59,0 -4.848,-1.364 -6.136,-3.402 m 24.155,-24.592 c -3.162,-3.072 -5.454,-4.593 -20.476,-4.593 l 0,0 c -0.143,0 -0.274,-0.011 -0.415,-0.016 l 0,0 c -0.4,-0.112 -0.7,-0.463 -0.7,-0.899 l 0,0 c 0,-0.523 0.425,-0.948 0.949,-0.948 l 0,0 c 15.393,0 17.876,-1.931 20.573,-4.37 l 0,0 c 1.329,-1.296 2.968,-1.852 4.912,-1.852 l 0,0 c 4.015,0 7.271,3.256 7.271,7.272 l 0,0 c 0,4.017 -3.256,7.272 -7.271,7.272 l 0,0 c -1.867,0 -3.56,-0.707 -4.843,-1.866 m -49.832,-5.406 c 0,-4.016 3.255,-7.272 7.271,-7.272 l 0,0 c 1.507,0 2.907,0.458 4.066,1.242 l 0,0 c 0.812,0.548 1.471,1.282 2.004,2.105 l 0,0 0,-0.307 c 1.281,2.071 3.647,3.462 6.168,3.462 l 0,0 c 1.007,0 0.989,1.397 0,1.397 l 0,0 c -2.615,0 -4.887,1.391 -6.168,3.461 l 0,0 0,-0.092 c -1.301,1.971 -3.53,3.276 -6.07,3.276 l 0,0 c -4.016,0 -7.271,-3.255 -7.271,-7.272"
           style="fill:url(#linearGradient4201);stroke:none"
           id="path4209" />
        <g
           id="g4191"
           clip-path="url(#clipPath4193)">
          <g
             id="g4197">
            <g
               id="g4199" />
          </g>
        </g>
      </g>
    </g>
  </g>
</svg>
