<?xml version="1.0" encoding="UTF-8" standalone="no"?>
<svg
   xmlns:dc="http://purl.org/dc/elements/1.1/"
   xmlns:cc="http://creativecommons.org/ns#"
   xmlns:rdf="http://www.w3.org/1999/02/22-rdf-syntax-ns#"
   xmlns:svg="http://www.w3.org/2000/svg"
   xmlns="http://www.w3.org/2000/svg"
   version="1.1"
   id="svg2"
   viewBox="0 0 77.4325 80.2325"
   height="22.643394mm"
   width="21.853172mm">
  <defs
     id="defs4">
    <linearGradient
       id="linearGradient7683"
       spreadMethod="pad"
       gradientTransform="matrix(26.335962,72.35746,72.35746,-26.335962,613.21637,134.33066)"
       gradientUnits="userSpaceOnUse"
       y2="0"
       x2="1"
       y1="0"
       x1="0">
      <stop
         id="stop7685"
         offset="0"
         style="stop-opacity:1;stop-color:#61c78d" />
      <stop
         id="stop7687"
         offset="0.0833398"
         style="stop-opacity:1;stop-color:#61c78d" />
      <stop
         id="stop7689"
         offset="1"
         style="stop-opacity:1;stop-color:#184060" />
    </linearGradient>
    <clipPath
       id="clipPath7969"
       clipPathUnits="userSpaceOnUse">
      <path
         id="path7971"
         d="m 644.895,201.553 c -0.811,-0.548 -1.471,-1.283 -2.003,-2.105 l 0,0 0,0.306 c -1.281,-2.07 -3.646,-3.461 -6.168,-3.461 l 0,0 c -1.007,0 -0.989,-1.397 0,-1.397 l 0,0 c 2.615,0 4.887,-1.391 6.168,-3.462 l 0,0 0,0.092 c 1.3,-1.971 3.529,-3.276 6.069,-3.276 l 0,0 c 4.017,0 7.271,3.257 7.271,7.272 l 0,0 c 0,4.017 -3.254,7.272 -7.271,7.272 l 0,0 c -1.505,0 -2.906,-0.457 -4.066,-1.241 m -49.414,-6.031 c 0,-4.015 3.255,-7.272 7.272,-7.272 l 0,0 c 4.016,0 7.273,3.257 7.273,7.272 l 0,0 c 0,4.017 -3.257,7.272 -7.273,7.272 l 0,0 c -4.017,0 -7.272,-3.255 -7.272,-7.272 m 25.676,-19.644 0,0.219 c -1.281,-2.071 -3.554,-3.462 -6.167,-3.462 l 0,0 c -2.616,0 -4.887,1.391 -6.169,3.461 l 0,0 0,-0.092 c -1.3,1.971 -3.53,3.276 -6.068,3.276 l 0,0 c -4.017,0 -7.272,-3.255 -7.272,-7.272 l 0,0 c 0,-4.016 3.255,-7.272 7.272,-7.272 l 0,0 c 1.505,0 2.906,0.458 4.066,1.242 l 0,0 c 0.811,0.548 1.469,1.283 2.002,2.105 l 0,0 0,-0.306 c 1.282,2.07 3.553,3.461 6.169,3.461 l 0,0 c 2.613,0 4.886,-1.391 6.167,-3.462 l 0,0 0,0.362 c 1.288,-2.038 3.546,-3.402 6.137,-3.402 l 0,0 c 4.016,0 7.272,3.256 7.272,7.272 l 0,0 c 0,4.017 -3.256,7.272 -7.272,7.272 l 0,0 c -2.591,0 -4.849,-1.363 -6.137,-3.402 m 24.156,-24.592 c -3.163,-3.072 -5.454,-4.593 -20.475,-4.593 l 0,0 c -0.144,0 -0.275,-0.011 -0.416,-0.016 l 0,0 c -0.4,-0.112 -0.7,-0.463 -0.7,-0.899 l 0,0 c 0,-0.523 0.424,-0.948 0.948,-0.948 l 0,0 c 15.395,0 17.877,-1.931 20.573,-4.37 l 0,0 c 1.33,-1.296 2.969,-1.852 4.912,-1.852 l 0,0 c 4.015,0 7.272,3.256 7.272,7.272 l 0,0 c 0,4.016 -3.257,7.272 -7.272,7.272 l 0,0 c -1.866,0 -3.56,-0.707 -4.842,-1.866 m -49.832,-5.406 c 0,-4.017 3.255,-7.272 7.272,-7.272 l 0,0 c 1.505,0 2.906,0.458 4.066,1.242 l 0,0 c 0.811,0.548 1.47,1.283 2.002,2.105 l 0,0 0,-0.307 c 1.282,2.071 3.647,3.462 6.169,3.462 l 0,0 c 1.007,0 0.989,1.397 0,1.397 l 0,0 c -2.616,0 -4.887,1.391 -6.169,3.461 l 0,0 0,-0.092 c -1.299,1.971 -3.529,3.276 -6.068,3.276 l 0,0 c -4.017,0 -7.272,-3.255 -7.272,-7.272" />
    </clipPath>
  </defs>
  <metadata
     id="metadata7">
    <rdf:RDF>
      <cc:Work
         rdf:about="">
        <dc:format>image/svg+xml</dc:format>
        <dc:type
           rdf:resource="http://purl.org/dc/dcmitype/StillImage" />
        <dc:title></dc:title>
      </cc:Work>
    </rdf:RDF>
  </metadata>
  <g
     transform="matrix(1.25,0,0,-1.25,-744.35125,253.4925)"
     id="g7871">
    <g
       id="g7965">
      <g
         clip-path="url(#clipPath7969)"
         id="g7967">
        <g
           id="g7973">
          <path
             id="path7983"
             style="fill:url(#linearGradient7683);stroke:none"
             d="m 644.895,201.553 c -0.811,-0.548 -1.471,-1.283 -2.003,-2.105 l 0,0 0,0.306 c -1.281,-2.07 -3.646,-3.461 -6.168,-3.461 l 0,0 c -1.007,0 -0.989,-1.397 0,-1.397 l 0,0 c 2.615,0 4.887,-1.391 6.168,-3.462 l 0,0 0,0.092 c 1.3,-1.971 3.529,-3.276 6.069,-3.276 l 0,0 c 4.017,0 7.271,3.257 7.271,7.272 l 0,0 c 0,4.017 -3.254,7.272 -7.271,7.272 l 0,0 c -1.505,0 -2.906,-0.457 -4.066,-1.241 m -49.414,-6.031 c 0,-4.015 3.255,-7.272 7.272,-7.272 l 0,0 c 4.016,0 7.273,3.257 7.273,7.272 l 0,0 c 0,4.017 -3.257,7.272 -7.273,7.272 l 0,0 c -4.017,0 -7.272,-3.255 -7.272,-7.272 m 25.676,-19.644 0,0.219 c -1.281,-2.071 -3.554,-3.462 -6.167,-3.462 l 0,0 c -2.616,0 -4.887,1.391 -6.169,3.461 l 0,0 0,-0.092 c -1.3,1.971 -3.53,3.276 -6.068,3.276 l 0,0 c -4.017,0 -7.272,-3.255 -7.272,-7.272 l 0,0 c 0,-4.016 3.255,-7.272 7.272,-7.272 l 0,0 c 1.505,0 2.906,0.458 4.066,1.242 l 0,0 c 0.811,0.548 1.469,1.283 2.002,2.105 l 0,0 0,-0.306 c 1.282,2.07 3.553,3.461 6.169,3.461 l 0,0 c 2.613,0 4.886,-1.391 6.167,-3.462 l 0,0 0,0.362 c 1.288,-2.038 3.546,-3.402 6.137,-3.402 l 0,0 c 4.016,0 7.272,3.256 7.272,7.272 l 0,0 c 0,4.017 -3.256,7.272 -7.272,7.272 l 0,0 c -2.591,0 -4.849,-1.363 -6.137,-3.402 m 24.156,-24.592 c -3.163,-3.072 -5.454,-4.593 -20.475,-4.593 l 0,0 c -0.144,0 -0.275,-0.011 -0.416,-0.016 l 0,0 c -0.4,-0.112 -0.7,-0.463 -0.7,-0.899 l 0,0 c 0,-0.523 0.424,-0.948 0.948,-0.948 l 0,0 c 15.395,0 17.877,-1.931 20.573,-4.37 l 0,0 c 1.33,-1.296 2.969,-1.852 4.912,-1.852 l 0,0 c 4.015,0 7.272,3.256 7.272,7.272 l 0,0 c 0,4.016 -3.257,7.272 -7.272,7.272 l 0,0 c -1.866,0 -3.56,-0.707 -4.842,-1.866 m -49.832,-5.406 c 0,-4.017 3.255,-7.272 7.272,-7.272 l 0,0 c 1.505,0 2.906,0.458 4.066,1.242 l 0,0 c 0.811,0.548 1.47,1.283 2.002,2.105 l 0,0 0,-0.307 c 1.282,2.071 3.647,3.462 6.169,3.462 l 0,0 c 1.007,0 0.989,1.397 0,1.397 l 0,0 c -2.616,0 -4.887,1.391 -6.169,3.461 l 0,0 0,-0.092 c -1.299,1.971 -3.529,3.276 -6.068,3.276 l 0,0 c -4.017,0 -7.272,-3.255 -7.272,-7.272" />
        </g>
      </g>
    </g>
  </g>
</svg>
