<?xml version="1.0" encoding="UTF-8" standalone="no"?>
<svg
   xmlns:dc="http://purl.org/dc/elements/1.1/"
   xmlns:cc="http://creativecommons.org/ns#"
   xmlns:rdf="http://www.w3.org/1999/02/22-rdf-syntax-ns#"
   xmlns:svg="http://www.w3.org/2000/svg"
   xmlns="http://www.w3.org/2000/svg"
   xmlns:sodipodi="http://sodipodi.sourceforge.net/DTD/sodipodi-0.dtd"
   xmlns:inkscape="http://www.inkscape.org/namespaces/inkscape"
   version="1.1"
   id="svg2"
   viewBox="0 0 670.2236 110.73932"
   height="31.253098mm"
   width="189.15199mm"
   inkscape:version="0.91 r13725"
   sodipodi:docname="eos-text.svg">
  <sodipodi:namedview
     pagecolor="#ffffff"
     bordercolor="#666666"
     borderopacity="1"
     objecttolerance="10"
     gridtolerance="10"
     guidetolerance="10"
     inkscape:pageopacity="0"
     inkscape:pageshadow="2"
     inkscape:window-width="1621"
     inkscape:window-height="886"
     id="namedview4493"
     showgrid="false"
     inkscape:zoom="0.63429568"
     inkscape:cx="270.21853"
     inkscape:cy="-367.42094"
     inkscape:window-x="0"
     inkscape:window-y="0"
     inkscape:window-maximized="0"
     inkscape:current-layer="svg2"
     showborder="true"
     fit-margin-top="0"
     fit-margin-left="0"
     fit-margin-right="0"
     fit-margin-bottom="0" />
  <defs
     id="defs4">
    <clipPath
       clipPathUnits="userSpaceOnUse"
       id="clipPath4215">
      <path
         d="m 290.498,340.937 c -0.449,0 -0.813,-0.364 -0.813,-0.813 l 0,0 0,-27.649 c 0,-0.45 0.364,-0.813 0.813,-0.813 l 0,0 3.915,0 c 0.449,0 0.814,0.363 0.814,0.813 l 0,0 0,27.649 c 0,0.449 -0.365,0.813 -0.814,0.813 l 0,0 -3.915,0 z m 46.136,-4.651 c 0,-1.95 1.64,-3.59 3.592,-3.59 l 0,0 c 1.951,0 3.591,1.64 3.591,3.59 l 0,0 c 0,1.952 -1.64,3.592 -3.591,3.592 l 0,0 c -1.952,0 -3.592,-1.64 -3.592,-3.592 m -111.776,2.699 c -0.428,0 -0.807,-0.275 -0.938,-0.683 l 0,0 -8.186,-25.351 c -0.205,-0.637 0.27,-1.289 0.939,-1.289 l 0,0 3.842,0 c 0.437,0 0.822,0.287 0.945,0.706 l 0,0 1.511,5.119 c 0.115,0.388 0.47,0.654 0.875,0.654 l 0,0 6.829,0 c 0.406,0 0.764,-0.268 0.877,-0.659 l 0,0 1.477,-5.108 c 0.122,-0.422 0.508,-0.712 0.948,-0.712 l 0,0 3.837,0 c 0.669,0 1.144,0.652 0.938,1.289 l 0,0 -8.185,25.351 c -0.131,0.408 -0.51,0.683 -0.938,0.683 l 0,0 -4.771,0 z m -0.234,-15.886 0.687,2.342 c 0.669,2.276 1.367,4.696 1.775,6.693 l 0,0 c 0.042,0.205 0.328,0.202 0.375,-0.002 l 0,0 c 0.413,-1.82 1.171,-4.434 1.792,-6.691 l 0,0 0.657,-2.347 c 0.082,-0.292 -0.137,-0.581 -0.44,-0.581 l 0,0 -4.407,0 c -0.305,0 -0.525,0.293 -0.439,0.586 m -79.992,15.886 c -0.461,0 -0.835,-0.374 -0.835,-0.835 l 0,0 0,-25.653 c 0,-0.462 0.374,-0.835 0.835,-0.835 l 0,0 14.958,0 c 0.461,0 0.835,0.373 0.835,0.835 l 0,0 0,3.286 c 0,0.462 -0.374,0.835 -0.835,0.835 l 0,0 -9.416,0 c -0.461,0 -0.835,0.375 -0.835,0.835 l 0,0 0,5.356 c 0,0.462 0.374,0.836 0.835,0.836 l 0,0 6.098,0 c 0.461,0 0.836,0.374 0.836,0.836 l 0,0 0,3.247 c 0,0.461 -0.375,0.835 -0.836,0.835 l 0,0 -6.098,0 c -0.461,0 -0.835,0.374 -0.835,0.835 l 0,0 0,3.795 c 0,0.461 0.374,0.835 0.835,0.835 l 0,0 9.416,0 c 0.461,0 0.835,0.374 0.835,0.835 l 0,0 0,3.287 c 0,0.461 -0.374,0.835 -0.835,0.835 l 0,0 -14.958,0 z m 180.617,-1.483 c -0.434,0 -0.784,-0.351 -0.784,-0.784 l 0,0 0,-5.224 c 0,-0.433 -0.351,-0.784 -0.784,-0.784 l 0,0 -1.086,0 c -0.434,0 -0.784,-0.351 -0.784,-0.784 l 0,0 0,-3.507 c 0,-0.432 0.35,-0.783 0.784,-0.783 l 0,0 1.086,0 c 0.433,0 0.784,-0.351 0.784,-0.784 l 0,0 0,-12.407 c 0,-0.432 0.35,-0.783 0.784,-0.783 l 0,0 3.897,0 c 0.433,0 0.784,0.351 0.784,0.783 l 0,0 0,12.407 c 0,0.433 0.351,0.784 0.784,0.784 l 0,0 1.125,0 c 0.433,0 0.784,0.351 0.784,0.783 l 0,0 0,3.507 c 0,0.433 -0.351,0.784 -0.784,0.784 l 0,0 -1.125,0 c -0.433,0 -0.784,0.351 -0.784,0.784 l 0,0 0,5.224 c 0,0.433 -0.351,0.784 -0.784,0.784 l 0,0 -3.897,0 z m -57.25,-9.314 c -0.383,-0.444 -0.319,-1.115 0.151,-1.465 l 0,0 2.253,-1.679 c 0.412,-0.306 0.976,-0.236 1.33,0.134 l 0,0 c 0.754,0.787 1.753,1.2 2.923,1.2 l 0,0 c 2.107,0 3.395,-1.249 3.395,-3.123 l 0,0 0,-0.625 c -1.443,0.273 -3.006,0.468 -4.606,0.468 l 0,0 c -5.309,0 -7.884,-3.083 -7.884,-6.245 l 0,0 c 0,-2.849 2.146,-5.582 6.362,-5.582 l 0,0 c 3.396,0 5.699,1.796 6.792,3.63 l 0,0 c 0.858,-1.991 2.459,-3.239 4.801,-3.239 l 0,0 1.094,0 c 0.451,0 0.819,0.366 0.819,0.819 l 0,0 0,3.318 c 0,0.453 -0.368,0.819 -0.819,0.819 l 0,0 c -0.626,0 -1.133,0.508 -1.133,1.132 l 0,0 0,5.739 c 0,4.567 -3.24,7.728 -8.548,7.728 l 0,0 c -3.738,0 -5.934,-1.879 -6.93,-3.029 m 3.104,-10.866 c 0,1.561 1.719,2.302 3.942,2.302 l 0,0 c 0.743,0 1.992,-0.195 3.006,-0.39 l 0,0 c -0.703,-2.069 -2.42,-3.669 -4.723,-3.669 l 0,0 c -1.444,0 -2.225,0.702 -2.225,1.757 m -22.721,10.773 c 0.078,0.546 0.117,1.014 0.117,1.327 l 0,0 0,1.288 -4.597,0 c -0.479,0 -0.868,-0.388 -0.868,-0.867 l 0,0 0,-17.314 c 0,-0.479 0.389,-0.867 0.868,-0.867 l 0,0 3.73,0 c 0.479,0 0.867,0.388 0.867,0.867 l 0,0 0,10.297 c 0.078,2.537 1.913,3.864 3.552,3.864 l 0,0 c 1.835,0 3.514,-1.366 3.514,-4.021 l 0,0 0,-10.14 c 0,-0.479 0.388,-0.867 0.867,-0.867 l 0,0 3.769,0 c 0.479,0 0.867,0.388 0.867,0.867 l 0,0 0,10.452 c 0,5.114 -2.966,8.197 -6.909,8.197 l 0,0 c -2.615,0 -4.528,-1.287 -5.777,-3.083 m 100.324,-6.871 c 0,-5.542 4.06,-9.914 9.798,-9.914 l 0,0 c 3.053,0 5.266,1.163 7.111,3.37 l 0,0 c 0.303,0.364 0.257,0.904 -0.12,1.191 l 0,0 -2.808,2.14 c -0.339,0.259 -0.814,0.206 -1.1,-0.109 l 0,0 c -0.779,-0.858 -1.799,-1.44 -3.083,-1.44 l 0,0 c -2.538,0 -4.333,1.835 -4.333,4.762 l 0,0 c 0,2.811 1.795,4.841 4.333,4.841 l 0,0 c 1.266,0 2.07,-0.487 2.85,-1.234 l 0,0 c 0.315,-0.303 0.809,-0.317 1.129,-0.02 l 0,0 2.596,2.408 c 0.35,0.325 0.338,0.871 -0.005,1.204 l 0,0 c -1.742,1.691 -3.927,2.717 -6.609,2.717 l 0,0 c -5.699,0 -9.759,-4.373 -9.759,-9.916 m -185.196,0 c 0,-5.659 4.372,-9.914 9.954,-9.914 l 0,0 c 5.582,0 9.953,4.255 9.953,9.914 l 0,0 c 0,5.66 -4.371,9.916 -9.953,9.916 l 0,0 c -5.582,0 -9.954,-4.256 -9.954,-9.916 m 5.308,0 c 0,2.889 1.835,5.036 4.646,5.036 l 0,0 c 2.77,0 4.606,-2.147 4.606,-5.036 l 0,0 c 0,-2.927 -1.836,-5.074 -4.606,-5.074 l 0,0 c -2.732,0 -4.646,2.147 -4.646,5.074 m 202.138,4.139 c 0,-3.865 3.668,-5.505 6.635,-6.363 l 0,0 c 1.601,-0.468 2.577,-0.936 2.577,-1.913 l 0,0 c 0,-0.702 -0.859,-1.171 -2.029,-1.171 l 0,0 c -1.504,0 -3.191,0.42 -4.481,1.408 l 0,0 c -0.477,0.365 -1.145,0.325 -1.537,-0.131 l 0,0 -1.651,-1.923 c -0.399,-0.464 -0.348,-1.171 0.119,-1.569 l 0,0 c 1.971,-1.681 4.5,-2.43 7.51,-2.43 l 0,0 c 4.294,0 7.377,2.499 7.377,6.09 l 0,0 c 0,3.629 -3.708,5.425 -6.597,6.284 l 0,0 c -1.717,0.507 -2.81,0.975 -2.81,1.913 l 0,0 c 0,0.741 0.742,1.209 1.756,1.209 l 0,0 c 0.848,0 1.915,-0.458 2.741,-1.067 l 0,0 c 0.453,-0.333 1.081,-0.276 1.463,0.136 l 0,0 1.564,1.684 c 0.429,0.462 0.391,1.198 -0.092,1.602 l 0,0 c -1.54,1.288 -3.363,1.978 -5.792,1.978 l 0,0 c -3.201,0 -6.753,-2.068 -6.753,-5.737 m -182.736,0 c 0,-3.865 3.668,-5.505 6.635,-6.363 l 0,0 c 1.601,-0.468 2.577,-0.936 2.577,-1.913 l 0,0 c 0,-0.702 -0.859,-1.171 -2.03,-1.171 l 0,0 c -1.584,0 -3.372,0.466 -4.684,1.572 l 0,0 c -0.348,0.294 -0.866,0.25 -1.162,-0.096 l 0,0 -1.998,-2.326 c -0.302,-0.352 -0.253,-0.875 0.091,-1.187 l 0,0 c 2,-1.807 4.6,-2.608 7.714,-2.608 l 0,0 c 4.293,0 7.377,2.499 7.377,6.09 l 0,0 c 0,3.629 -3.708,5.425 -6.597,6.284 l 0,0 c -1.717,0.507 -2.81,0.975 -2.81,1.913 l 0,0 c 0,0.741 0.742,1.209 1.756,1.209 l 0,0 c 0.907,0 2.061,-0.524 2.906,-1.194 l 0,0 c 0.34,-0.268 0.82,-0.251 1.115,0.065 l 0,0 1.938,2.088 c 0.325,0.349 0.287,0.895 -0.07,1.212 l 0,0 c -1.585,1.406 -3.462,2.162 -6.006,2.162 l 0,0 c -3.2,0 -6.752,-2.068 -6.752,-5.737 m 150.08,5.347 c -0.376,0 -0.68,-0.305 -0.68,-0.681 l 0,0 0,-17.687 c 0,-0.376 0.304,-0.68 0.68,-0.68 l 0,0 4.22,0 c 0.376,0 0.682,0.304 0.682,0.68 l 0,0 0,17.687 c 0,0.376 -0.306,0.681 -0.682,0.681 l 0,0 -4.22,0 z m -24.176,0 c -0.287,0 -0.546,-0.171 -0.659,-0.434 l 0,0 -3.638,-8.466 c -0.352,-0.82 -0.703,-1.874 -0.703,-1.952 l 0,0 c -0.04,0.117 -0.312,1.172 -0.625,1.952 l 0,0 -3.485,8.456 c -0.111,0.269 -0.373,0.444 -0.664,0.444 l 0,0 -4.179,0 c -0.513,0 -0.86,-0.522 -0.662,-0.995 l 0,0 6.283,-14.981 c 0.258,-0.616 0.252,-1.311 -0.017,-1.921 l 0,0 -4.825,-10.958 c -0.176,-0.4 0.117,-0.85 0.555,-0.85 l 0,0 4.375,0 c 0.24,0 0.457,0.141 0.555,0.361 l 0,0 12.547,28.336 c 0.21,0.475 -0.137,1.008 -0.656,1.008 l 0,0 -4.202,0 z"
         id="path4217"
         inkscape:connector-curvature="0" />
    </clipPath>
    <linearGradient
       x1="0"
       y1="0"
       x2="1"
       y2="0"
       gradientUnits="userSpaceOnUse"
       gradientTransform="matrix(187.131,108.04013,108.04013,-187.131,167.91057,270.5061)"
       spreadMethod="pad"
       id="linearGradient4223">
      <stop
         style="stop-opacity:1;stop-color:#33bdf2"
         offset="0"
         id="stop4225" />
      <stop
         style="stop-opacity:1;stop-color:#4f6bbd"
         offset="0.437676"
         id="stop4227" />
      <stop
         style="stop-opacity:1;stop-color:#924bab"
         offset="1"
         id="stop4229" />
    </linearGradient>
  </defs>
  <metadata
     id="metadata7">
    <rdf:RDF>
      <cc:Work
         rdf:about="">
        <dc:format>image/svg+xml</dc:format>
        <dc:type
           rdf:resource="http://purl.org/dc/dcmitype/StillImage" />
        <dc:title></dc:title>
      </cc:Work>
    </rdf:RDF>
  </metadata>
  <g
     id="layer1"
     transform="matrix(2.218558,0,0,2.218558,-162.56723,-1869.3074)">
    <g
       id="g4175"
       transform="matrix(1.25,0,0,-1.25,-106.47017,1268.7489)">
      <g
         id="g4211">
        <g
           id="g4213"
           clip-path="url(#clipPath4215)">
          <g
             id="g4219">
            <g
               id="g4221">
              <path
                 d="m 290.498,340.937 c -0.449,0 -0.813,-0.364 -0.813,-0.813 l 0,0 0,-27.649 c 0,-0.45 0.364,-0.813 0.813,-0.813 l 0,0 3.915,0 c 0.449,0 0.814,0.363 0.814,0.813 l 0,0 0,27.649 c 0,0.449 -0.365,0.813 -0.814,0.813 l 0,0 -3.915,0 z m 46.136,-4.651 c 0,-1.95 1.64,-3.59 3.592,-3.59 l 0,0 c 1.951,0 3.591,1.64 3.591,3.59 l 0,0 c 0,1.952 -1.64,3.592 -3.591,3.592 l 0,0 c -1.952,0 -3.592,-1.64 -3.592,-3.592 m -111.776,2.699 c -0.428,0 -0.807,-0.275 -0.938,-0.683 l 0,0 -8.186,-25.351 c -0.205,-0.637 0.27,-1.289 0.939,-1.289 l 0,0 3.842,0 c 0.437,0 0.822,0.287 0.945,0.706 l 0,0 1.511,5.119 c 0.115,0.388 0.47,0.654 0.875,0.654 l 0,0 6.829,0 c 0.406,0 0.764,-0.268 0.877,-0.659 l 0,0 1.477,-5.108 c 0.122,-0.422 0.508,-0.712 0.948,-0.712 l 0,0 3.837,0 c 0.669,0 1.144,0.652 0.938,1.289 l 0,0 -8.185,25.351 c -0.131,0.408 -0.51,0.683 -0.938,0.683 l 0,0 -4.771,0 z m -0.234,-15.886 0.687,2.342 c 0.669,2.276 1.367,4.696 1.775,6.693 l 0,0 c 0.042,0.205 0.328,0.202 0.375,-0.002 l 0,0 c 0.413,-1.82 1.171,-4.434 1.792,-6.691 l 0,0 0.657,-2.347 c 0.082,-0.292 -0.137,-0.581 -0.44,-0.581 l 0,0 -4.407,0 c -0.305,0 -0.525,0.293 -0.439,0.586 m -79.992,15.886 c -0.461,0 -0.835,-0.374 -0.835,-0.835 l 0,0 0,-25.653 c 0,-0.462 0.374,-0.835 0.835,-0.835 l 0,0 14.958,0 c 0.461,0 0.835,0.373 0.835,0.835 l 0,0 0,3.286 c 0,0.462 -0.374,0.835 -0.835,0.835 l 0,0 -9.416,0 c -0.461,0 -0.835,0.375 -0.835,0.835 l 0,0 0,5.356 c 0,0.462 0.374,0.836 0.835,0.836 l 0,0 6.098,0 c 0.461,0 0.836,0.374 0.836,0.836 l 0,0 0,3.247 c 0,0.461 -0.375,0.835 -0.836,0.835 l 0,0 -6.098,0 c -0.461,0 -0.835,0.374 -0.835,0.835 l 0,0 0,3.795 c 0,0.461 0.374,0.835 0.835,0.835 l 0,0 9.416,0 c 0.461,0 0.835,0.374 0.835,0.835 l 0,0 0,3.287 c 0,0.461 -0.374,0.835 -0.835,0.835 l 0,0 -14.958,0 z m 180.617,-1.483 c -0.434,0 -0.784,-0.351 -0.784,-0.784 l 0,0 0,-5.224 c 0,-0.433 -0.351,-0.784 -0.784,-0.784 l 0,0 -1.086,0 c -0.434,0 -0.784,-0.351 -0.784,-0.784 l 0,0 0,-3.507 c 0,-0.432 0.35,-0.783 0.784,-0.783 l 0,0 1.086,0 c 0.433,0 0.784,-0.351 0.784,-0.784 l 0,0 0,-12.407 c 0,-0.432 0.35,-0.783 0.784,-0.783 l 0,0 3.897,0 c 0.433,0 0.784,0.351 0.784,0.783 l 0,0 0,12.407 c 0,0.433 0.351,0.784 0.784,0.784 l 0,0 1.125,0 c 0.433,0 0.784,0.351 0.784,0.783 l 0,0 0,3.507 c 0,0.433 -0.351,0.784 -0.784,0.784 l 0,0 -1.125,0 c -0.433,0 -0.784,0.351 -0.784,0.784 l 0,0 0,5.224 c 0,0.433 -0.351,0.784 -0.784,0.784 l 0,0 -3.897,0 z m -57.25,-9.314 c -0.383,-0.444 -0.319,-1.115 0.151,-1.465 l 0,0 2.253,-1.679 c 0.412,-0.306 0.976,-0.236 1.33,0.134 l 0,0 c 0.754,0.787 1.753,1.2 2.923,1.2 l 0,0 c 2.107,0 3.395,-1.249 3.395,-3.123 l 0,0 0,-0.625 c -1.443,0.273 -3.006,0.468 -4.606,0.468 l 0,0 c -5.309,0 -7.884,-3.083 -7.884,-6.245 l 0,0 c 0,-2.849 2.146,-5.582 6.362,-5.582 l 0,0 c 3.396,0 5.699,1.796 6.792,3.63 l 0,0 c 0.858,-1.991 2.459,-3.239 4.801,-3.239 l 0,0 1.094,0 c 0.451,0 0.819,0.366 0.819,0.819 l 0,0 0,3.318 c 0,0.453 -0.368,0.819 -0.819,0.819 l 0,0 c -0.626,0 -1.133,0.508 -1.133,1.132 l 0,0 0,5.739 c 0,4.567 -3.24,7.728 -8.548,7.728 l 0,0 c -3.738,0 -5.934,-1.879 -6.93,-3.029 m 3.104,-10.866 c 0,1.561 1.719,2.302 3.942,2.302 l 0,0 c 0.743,0 1.992,-0.195 3.006,-0.39 l 0,0 c -0.703,-2.069 -2.42,-3.669 -4.723,-3.669 l 0,0 c -1.444,0 -2.225,0.702 -2.225,1.757 m -22.721,10.773 c 0.078,0.546 0.117,1.014 0.117,1.327 l 0,0 0,1.288 -4.597,0 c -0.479,0 -0.868,-0.388 -0.868,-0.867 l 0,0 0,-17.314 c 0,-0.479 0.389,-0.867 0.868,-0.867 l 0,0 3.73,0 c 0.479,0 0.867,0.388 0.867,0.867 l 0,0 0,10.297 c 0.078,2.537 1.913,3.864 3.552,3.864 l 0,0 c 1.835,0 3.514,-1.366 3.514,-4.021 l 0,0 0,-10.14 c 0,-0.479 0.388,-0.867 0.867,-0.867 l 0,0 3.769,0 c 0.479,0 0.867,0.388 0.867,0.867 l 0,0 0,10.452 c 0,5.114 -2.966,8.197 -6.909,8.197 l 0,0 c -2.615,0 -4.528,-1.287 -5.777,-3.083 m 100.324,-6.871 c 0,-5.542 4.06,-9.914 9.798,-9.914 l 0,0 c 3.053,0 5.266,1.163 7.111,3.37 l 0,0 c 0.303,0.364 0.257,0.904 -0.12,1.191 l 0,0 -2.808,2.14 c -0.339,0.259 -0.814,0.206 -1.1,-0.109 l 0,0 c -0.779,-0.858 -1.799,-1.44 -3.083,-1.44 l 0,0 c -2.538,0 -4.333,1.835 -4.333,4.762 l 0,0 c 0,2.811 1.795,4.841 4.333,4.841 l 0,0 c 1.266,0 2.07,-0.487 2.85,-1.234 l 0,0 c 0.315,-0.303 0.809,-0.317 1.129,-0.02 l 0,0 2.596,2.408 c 0.35,0.325 0.338,0.871 -0.005,1.204 l 0,0 c -1.742,1.691 -3.927,2.717 -6.609,2.717 l 0,0 c -5.699,0 -9.759,-4.373 -9.759,-9.916 m -185.196,0 c 0,-5.659 4.372,-9.914 9.954,-9.914 l 0,0 c 5.582,0 9.953,4.255 9.953,9.914 l 0,0 c 0,5.66 -4.371,9.916 -9.953,9.916 l 0,0 c -5.582,0 -9.954,-4.256 -9.954,-9.916 m 5.308,0 c 0,2.889 1.835,5.036 4.646,5.036 l 0,0 c 2.77,0 4.606,-2.147 4.606,-5.036 l 0,0 c 0,-2.927 -1.836,-5.074 -4.606,-5.074 l 0,0 c -2.732,0 -4.646,2.147 -4.646,5.074 m 202.138,4.139 c 0,-3.865 3.668,-5.505 6.635,-6.363 l 0,0 c 1.601,-0.468 2.577,-0.936 2.577,-1.913 l 0,0 c 0,-0.702 -0.859,-1.171 -2.029,-1.171 l 0,0 c -1.504,0 -3.191,0.42 -4.481,1.408 l 0,0 c -0.477,0.365 -1.145,0.325 -1.537,-0.131 l 0,0 -1.651,-1.923 c -0.399,-0.464 -0.348,-1.171 0.119,-1.569 l 0,0 c 1.971,-1.681 4.5,-2.43 7.51,-2.43 l 0,0 c 4.294,0 7.377,2.499 7.377,6.09 l 0,0 c 0,3.629 -3.708,5.425 -6.597,6.284 l 0,0 c -1.717,0.507 -2.81,0.975 -2.81,1.913 l 0,0 c 0,0.741 0.742,1.209 1.756,1.209 l 0,0 c 0.848,0 1.915,-0.458 2.741,-1.067 l 0,0 c 0.453,-0.333 1.081,-0.276 1.463,0.136 l 0,0 1.564,1.684 c 0.429,0.462 0.391,1.198 -0.092,1.602 l 0,0 c -1.54,1.288 -3.363,1.978 -5.792,1.978 l 0,0 c -3.201,0 -6.753,-2.068 -6.753,-5.737 m -182.736,0 c 0,-3.865 3.668,-5.505 6.635,-6.363 l 0,0 c 1.601,-0.468 2.577,-0.936 2.577,-1.913 l 0,0 c 0,-0.702 -0.859,-1.171 -2.03,-1.171 l 0,0 c -1.584,0 -3.372,0.466 -4.684,1.572 l 0,0 c -0.348,0.294 -0.866,0.25 -1.162,-0.096 l 0,0 -1.998,-2.326 c -0.302,-0.352 -0.253,-0.875 0.091,-1.187 l 0,0 c 2,-1.807 4.6,-2.608 7.714,-2.608 l 0,0 c 4.293,0 7.377,2.499 7.377,6.09 l 0,0 c 0,3.629 -3.708,5.425 -6.597,6.284 l 0,0 c -1.717,0.507 -2.81,0.975 -2.81,1.913 l 0,0 c 0,0.741 0.742,1.209 1.756,1.209 l 0,0 c 0.907,0 2.061,-0.524 2.906,-1.194 l 0,0 c 0.34,-0.268 0.82,-0.251 1.115,0.065 l 0,0 1.938,2.088 c 0.325,0.349 0.287,0.895 -0.07,1.212 l 0,0 c -1.585,1.406 -3.462,2.162 -6.006,2.162 l 0,0 c -3.2,0 -6.752,-2.068 -6.752,-5.737 m 150.08,5.347 c -0.376,0 -0.68,-0.305 -0.68,-0.681 l 0,0 0,-17.687 c 0,-0.376 0.304,-0.68 0.68,-0.68 l 0,0 4.22,0 c 0.376,0 0.682,0.304 0.682,0.68 l 0,0 0,17.687 c 0,0.376 -0.306,0.681 -0.682,0.681 l 0,0 -4.22,0 z m -24.176,0 c -0.287,0 -0.546,-0.171 -0.659,-0.434 l 0,0 -3.638,-8.466 c -0.352,-0.82 -0.703,-1.874 -0.703,-1.952 l 0,0 c -0.04,0.117 -0.312,1.172 -0.625,1.952 l 0,0 -3.485,8.456 c -0.111,0.269 -0.373,0.444 -0.664,0.444 l 0,0 -4.179,0 c -0.513,0 -0.86,-0.522 -0.662,-0.995 l 0,0 6.283,-14.981 c 0.258,-0.616 0.252,-1.311 -0.017,-1.921 l 0,0 -4.825,-10.958 c -0.176,-0.4 0.117,-0.85 0.555,-0.85 l 0,0 4.375,0 c 0.24,0 0.457,0.141 0.555,0.361 l 0,0 12.547,28.336 c 0.21,0.475 -0.137,1.008 -0.656,1.008 l 0,0 -4.202,0 z"
                 style="fill:url(#linearGradient4223);stroke:none"
                 id="path4231"
                 inkscape:connector-curvature="0" />
            </g>
          </g>
        </g>
      </g>
    </g>
  </g>
</svg>
