<?xml version="1.0" encoding="UTF-8" standalone="no"?>
<svg
   xmlns:dc="http://purl.org/dc/elements/1.1/"
   xmlns:cc="http://creativecommons.org/ns#"
   xmlns:rdf="http://www.w3.org/1999/02/22-rdf-syntax-ns#"
   xmlns:svg="http://www.w3.org/2000/svg"
   xmlns="http://www.w3.org/2000/svg"
   xmlns:sodipodi="http://sodipodi.sourceforge.net/DTD/sodipodi-0.dtd"
   xmlns:inkscape="http://www.inkscape.org/namespaces/inkscape"
   width="189.15199mm"
   height="31.253098mm"
   viewBox="0 0 670.2236 110.73932"
   id="svg2"
   version="1.1"
   inkscape:version="0.91 r13725"
   sodipodi:docname="eos-text-1.svg">
  <sodipodi:namedview
     pagecolor="#ffffff"
     bordercolor="#666666"
     borderopacity="1"
     objecttolerance="10"
     gridtolerance="10"
     guidetolerance="10"
     inkscape:pageopacity="0"
     inkscape:pageshadow="2"
     inkscape:window-width="1810"
     inkscape:window-height="942"
     id="namedview4152"
     showgrid="false"
     inkscape:zoom="1.9560636"
     inkscape:cx="189.14559"
     inkscape:cy="96.687142"
     inkscape:window-x="0"
     inkscape:window-y="0"
     inkscape:window-maximized="0"
     inkscape:current-layer="svg2" />
  <defs
     id="defs4">
    <clipPath
       id="clipPath4215"
       clipPathUnits="userSpaceOnUse">
      <path
         id="path4217"
         d="m 290.498,340.937 c -0.449,0 -0.813,-0.364 -0.813,-0.813 l 0,0 0,-27.649 c 0,-0.45 0.364,-0.813 0.813,-0.813 l 0,0 3.915,0 c 0.449,0 0.814,0.363 0.814,0.813 l 0,0 0,27.649 c 0,0.449 -0.365,0.813 -0.814,0.813 l 0,0 -3.915,0 z m 46.136,-4.651 c 0,-1.95 1.64,-3.59 3.592,-3.59 l 0,0 c 1.951,0 3.591,1.64 3.591,3.59 l 0,0 c 0,1.952 -1.64,3.592 -3.591,3.592 l 0,0 c -1.952,0 -3.592,-1.64 -3.592,-3.592 m -111.776,2.699 c -0.428,0 -0.807,-0.275 -0.938,-0.683 l 0,0 -8.186,-25.351 c -0.205,-0.637 0.27,-1.289 0.939,-1.289 l 0,0 3.842,0 c 0.437,0 0.822,0.287 0.945,0.706 l 0,0 1.511,5.119 c 0.115,0.388 0.47,0.654 0.875,0.654 l 0,0 6.829,0 c 0.406,0 0.764,-0.268 0.877,-0.659 l 0,0 1.477,-5.108 c 0.122,-0.422 0.508,-0.712 0.948,-0.712 l 0,0 3.837,0 c 0.669,0 1.144,0.652 0.938,1.289 l 0,0 -8.185,25.351 c -0.131,0.408 -0.51,0.683 -0.938,0.683 l 0,0 -4.771,0 z m -0.234,-15.886 0.687,2.342 c 0.669,2.276 1.367,4.696 1.775,6.693 l 0,0 c 0.042,0.205 0.328,0.202 0.375,-0.002 l 0,0 c 0.413,-1.82 1.171,-4.434 1.792,-6.691 l 0,0 0.657,-2.347 c 0.082,-0.292 -0.137,-0.581 -0.44,-0.581 l 0,0 -4.407,0 c -0.305,0 -0.525,0.293 -0.439,0.586 m -79.992,15.886 c -0.461,0 -0.835,-0.374 -0.835,-0.835 l 0,0 0,-25.653 c 0,-0.462 0.374,-0.835 0.835,-0.835 l 0,0 14.958,0 c 0.461,0 0.835,0.373 0.835,0.835 l 0,0 0,3.286 c 0,0.462 -0.374,0.835 -0.835,0.835 l 0,0 -9.416,0 c -0.461,0 -0.835,0.375 -0.835,0.835 l 0,0 0,5.356 c 0,0.462 0.374,0.836 0.835,0.836 l 0,0 6.098,0 c 0.461,0 0.836,0.374 0.836,0.836 l 0,0 0,3.247 c 0,0.461 -0.375,0.835 -0.836,0.835 l 0,0 -6.098,0 c -0.461,0 -0.835,0.374 -0.835,0.835 l 0,0 0,3.795 c 0,0.461 0.374,0.835 0.835,0.835 l 0,0 9.416,0 c 0.461,0 0.835,0.374 0.835,0.835 l 0,0 0,3.287 c 0,0.461 -0.374,0.835 -0.835,0.835 l 0,0 -14.958,0 z m 180.617,-1.483 c -0.434,0 -0.784,-0.351 -0.784,-0.784 l 0,0 0,-5.224 c 0,-0.433 -0.351,-0.784 -0.784,-0.784 l 0,0 -1.086,0 c -0.434,0 -0.784,-0.351 -0.784,-0.784 l 0,0 0,-3.507 c 0,-0.432 0.35,-0.783 0.784,-0.783 l 0,0 1.086,0 c 0.433,0 0.784,-0.351 0.784,-0.784 l 0,0 0,-12.407 c 0,-0.432 0.35,-0.783 0.784,-0.783 l 0,0 3.897,0 c 0.433,0 0.784,0.351 0.784,0.783 l 0,0 0,12.407 c 0,0.433 0.351,0.784 0.784,0.784 l 0,0 1.125,0 c 0.433,0 0.784,0.351 0.784,0.783 l 0,0 0,3.507 c 0,0.433 -0.351,0.784 -0.784,0.784 l 0,0 -1.125,0 c -0.433,0 -0.784,0.351 -0.784,0.784 l 0,0 0,5.224 c 0,0.433 -0.351,0.784 -0.784,0.784 l 0,0 -3.897,0 z m -57.25,-9.314 c -0.383,-0.444 -0.319,-1.115 0.151,-1.465 l 0,0 2.253,-1.679 c 0.412,-0.306 0.976,-0.236 1.33,0.134 l 0,0 c 0.754,0.787 1.753,1.2 2.923,1.2 l 0,0 c 2.107,0 3.395,-1.249 3.395,-3.123 l 0,0 0,-0.625 c -1.443,0.273 -3.006,0.468 -4.606,0.468 l 0,0 c -5.309,0 -7.884,-3.083 -7.884,-6.245 l 0,0 c 0,-2.849 2.146,-5.582 6.362,-5.582 l 0,0 c 3.396,0 5.699,1.796 6.792,3.63 l 0,0 c 0.858,-1.991 2.459,-3.239 4.801,-3.239 l 0,0 1.094,0 c 0.451,0 0.819,0.366 0.819,0.819 l 0,0 0,3.318 c 0,0.453 -0.368,0.819 -0.819,0.819 l 0,0 c -0.626,0 -1.133,0.508 -1.133,1.132 l 0,0 0,5.739 c 0,4.567 -3.24,7.728 -8.548,7.728 l 0,0 c -3.738,0 -5.934,-1.879 -6.93,-3.029 m 3.104,-10.866 c 0,1.561 1.719,2.302 3.942,2.302 l 0,0 c 0.743,0 1.992,-0.195 3.006,-0.39 l 0,0 c -0.703,-2.069 -2.42,-3.669 -4.723,-3.669 l 0,0 c -1.444,0 -2.225,0.702 -2.225,1.757 m -22.721,10.773 c 0.078,0.546 0.117,1.014 0.117,1.327 l 0,0 0,1.288 -4.597,0 c -0.479,0 -0.868,-0.388 -0.868,-0.867 l 0,0 0,-17.314 c 0,-0.479 0.389,-0.867 0.868,-0.867 l 0,0 3.73,0 c 0.479,0 0.867,0.388 0.867,0.867 l 0,0 0,10.297 c 0.078,2.537 1.913,3.864 3.552,3.864 l 0,0 c 1.835,0 3.514,-1.366 3.514,-4.021 l 0,0 0,-10.14 c 0,-0.479 0.388,-0.867 0.867,-0.867 l 0,0 3.769,0 c 0.479,0 0.867,0.388 0.867,0.867 l 0,0 0,10.452 c 0,5.114 -2.966,8.197 -6.909,8.197 l 0,0 c -2.615,0 -4.528,-1.287 -5.777,-3.083 m 100.324,-6.871 c 0,-5.542 4.06,-9.914 9.798,-9.914 l 0,0 c 3.053,0 5.266,1.163 7.111,3.37 l 0,0 c 0.303,0.364 0.257,0.904 -0.12,1.191 l 0,0 -2.808,2.14 c -0.339,0.259 -0.814,0.206 -1.1,-0.109 l 0,0 c -0.779,-0.858 -1.799,-1.44 -3.083,-1.44 l 0,0 c -2.538,0 -4.333,1.835 -4.333,4.762 l 0,0 c 0,2.811 1.795,4.841 4.333,4.841 l 0,0 c 1.266,0 2.07,-0.487 2.85,-1.234 l 0,0 c 0.315,-0.303 0.809,-0.317 1.129,-0.02 l 0,0 2.596,2.408 c 0.35,0.325 0.338,0.871 -0.005,1.204 l 0,0 c -1.742,1.691 -3.927,2.717 -6.609,2.717 l 0,0 c -5.699,0 -9.759,-4.373 -9.759,-9.916 m -185.196,0 c 0,-5.659 4.372,-9.914 9.954,-9.914 l 0,0 c 5.582,0 9.953,4.255 9.953,9.914 l 0,0 c 0,5.66 -4.371,9.916 -9.953,9.916 l 0,0 c -5.582,0 -9.954,-4.256 -9.954,-9.916 m 5.308,0 c 0,2.889 1.835,5.036 4.646,5.036 l 0,0 c 2.77,0 4.606,-2.147 4.606,-5.036 l 0,0 c 0,-2.927 -1.836,-5.074 -4.606,-5.074 l 0,0 c -2.732,0 -4.646,2.147 -4.646,5.074 m 202.138,4.139 c 0,-3.865 3.668,-5.505 6.635,-6.363 l 0,0 c 1.601,-0.468 2.577,-0.936 2.577,-1.913 l 0,0 c 0,-0.702 -0.859,-1.171 -2.029,-1.171 l 0,0 c -1.504,0 -3.191,0.42 -4.481,1.408 l 0,0 c -0.477,0.365 -1.145,0.325 -1.537,-0.131 l 0,0 -1.651,-1.923 c -0.399,-0.464 -0.348,-1.171 0.119,-1.569 l 0,0 c 1.971,-1.681 4.5,-2.43 7.51,-2.43 l 0,0 c 4.294,0 7.377,2.499 7.377,6.09 l 0,0 c 0,3.629 -3.708,5.425 -6.597,6.284 l 0,0 c -1.717,0.507 -2.81,0.975 -2.81,1.913 l 0,0 c 0,0.741 0.742,1.209 1.756,1.209 l 0,0 c 0.848,0 1.915,-0.458 2.741,-1.067 l 0,0 c 0.453,-0.333 1.081,-0.276 1.463,0.136 l 0,0 1.564,1.684 c 0.429,0.462 0.391,1.198 -0.092,1.602 l 0,0 c -1.54,1.288 -3.363,1.978 -5.792,1.978 l 0,0 c -3.201,0 -6.753,-2.068 -6.753,-5.737 m -182.736,0 c 0,-3.865 3.668,-5.505 6.635,-6.363 l 0,0 c 1.601,-0.468 2.577,-0.936 2.577,-1.913 l 0,0 c 0,-0.702 -0.859,-1.171 -2.03,-1.171 l 0,0 c -1.584,0 -3.372,0.466 -4.684,1.572 l 0,0 c -0.348,0.294 -0.866,0.25 -1.162,-0.096 l 0,0 -1.998,-2.326 c -0.302,-0.352 -0.253,-0.875 0.091,-1.187 l 0,0 c 2,-1.807 4.6,-2.608 7.714,-2.608 l 0,0 c 4.293,0 7.377,2.499 7.377,6.09 l 0,0 c 0,3.629 -3.708,5.425 -6.597,6.284 l 0,0 c -1.717,0.507 -2.81,0.975 -2.81,1.913 l 0,0 c 0,0.741 0.742,1.209 1.756,1.209 l 0,0 c 0.907,0 2.061,-0.524 2.906,-1.194 l 0,0 c 0.34,-0.268 0.82,-0.251 1.115,0.065 l 0,0 1.938,2.088 c 0.325,0.349 0.287,0.895 -0.07,1.212 l 0,0 c -1.585,1.406 -3.462,2.162 -6.006,2.162 l 0,0 c -3.2,0 -6.752,-2.068 -6.752,-5.737 m 150.08,5.347 c -0.376,0 -0.68,-0.305 -0.68,-0.681 l 0,0 0,-17.687 c 0,-0.376 0.304,-0.68 0.68,-0.68 l 0,0 4.22,0 c 0.376,0 0.682,0.304 0.682,0.68 l 0,0 0,17.687 c 0,0.376 -0.306,0.681 -0.682,0.681 l 0,0 -4.22,0 z m -24.176,0 c -0.287,0 -0.546,-0.171 -0.659,-0.434 l 0,0 -3.638,-8.466 c -0.352,-0.82 -0.703,-1.874 -0.703,-1.952 l 0,0 c -0.04,0.117 -0.312,1.172 -0.625,1.952 l 0,0 -3.485,8.456 c -0.111,0.269 -0.373,0.444 -0.664,0.444 l 0,0 -4.179,0 c -0.513,0 -0.86,-0.522 -0.662,-0.995 l 0,0 6.283,-14.981 c 0.258,-0.616 0.252,-1.311 -0.017,-1.921 l 0,0 -4.825,-10.958 c -0.176,-0.4 0.117,-0.85 0.555,-0.85 l 0,0 4.375,0 c 0.24,0 0.457,0.141 0.555,0.361 l 0,0 12.547,28.336 c 0.21,0.475 -0.137,1.008 -0.656,1.008 l 0,0 -4.202,0 z" />
    </clipPath>
    <linearGradient
       id="linearGradient4223"
       spreadMethod="pad"
       gradientTransform="matrix(518.95122,-299.61661,299.61661,518.95122,66.87169,195.31879)"
       gradientUnits="userSpaceOnUse"
       y2="0"
       x2="1"
       y1="0"
       x1="0">
      <stop
         id="stop4225"
         offset="0"
         style="stop-opacity:1;stop-color:#214e82" />
      <stop
         id="stop4227"
         offset="0.437676"
         style="stop-opacity:1;stop-color:#146c9d" />
      <stop
         id="stop4229"
         offset="1"
         style="stop-opacity:1;stop-color:#0197c5" />
    </linearGradient>
  </defs>
  <metadata
     id="metadata7">
    <rdf:RDF>
      <cc:Work
         rdf:about="">
        <dc:format>image/svg+xml</dc:format>
        <dc:type
           rdf:resource="http://purl.org/dc/dcmitype/StillImage" />
        <dc:title></dc:title>
      </cc:Work>
    </rdf:RDF>
  </metadata>
  <path
     id="path4231"
     style="fill:url(#linearGradient4223);stroke:none"
     d="m 406.83085,-1.39713e-5 c -1.24517,0 -2.25461,1.0094438713 -2.25461,2.2546095713 l 0,0 0,76.6761374 c 0,1.247939 1.00944,2.25461 2.25461,2.25461 l 0,0 10.85707,0 c 1.24516,0 2.25738,-1.006671 2.25738,-2.25461 l 0,0 0,-76.6761374 c 0,-1.2451657 -1.01222,-2.2546095713 -2.25738,-2.2546095713 l 0,0 -10.85707,0 z M 534.77509,12.898128 c 0,5.407735 4.54804,9.955779 9.96133,9.955779 l 0,0 c 5.4105,0 9.95855,-4.548044 9.95855,-9.955779 l 0,0 c 0,-5.4132819 -4.54805,-9.9613258 -9.95855,-9.9613258 l 0,0 c -5.41329,0 -9.96133,4.5480439 -9.96133,9.9613258 M 224.79817,5.4132675 c -1.18693,0 -2.23797,0.7626294 -2.60126,1.8940939 l 0,0 -22.7014,70.3033296 c -0.5685,1.766527 0.74877,3.574652 2.60403,3.574652 l 0,0 10.65463,0 c 1.21189,0 2.27957,-0.795908 2.62067,-1.957878 l 0,0 4.1903,-14.195998 c 0.31892,-1.076 1.30341,-1.813671 2.42655,-1.813671 l 0,0 18.93817,0 c 1.12591,0 2.11872,0.743217 2.43209,1.827537 l 0,0 4.09601,14.165493 c 0.33833,1.17029 1.40879,1.974517 2.62899,1.974517 l 0,0 10.64076,0 c 1.85527,0 3.17254,-1.808125 2.60126,-3.574652 l 0,0 -22.69862,-70.3033296 c -0.36329,-1.1314645 -1.41433,-1.8940939 -2.60126,-1.8940939 l 0,0 -13.23092,0 z m -0.64893,44.0550155 1.90518,-6.494829 c 1.85527,-6.311797 3.79097,-13.022935 4.92243,-18.56101 l 0,0 c 0.11647,-0.568506 0.90961,-0.560186 1.03995,0.0044 l 0,0 c 1.14533,5.047219 3.24741,12.296357 4.96957,18.555464 l 0,0 1.82199,6.508695 c 0.2274,0.809773 -0.37993,1.611227 -1.22021,1.611227 l 0,0 -12.22148,0 c -0.84582,0 -1.45593,-0.812546 -1.21743,-1.625093 M 2.3156234,5.4121583 c -1.278444,0 -2.31561990736,1.0371758 -2.31561990736,2.3156199 l 0,0 0,71.1408358 c 0,1.281217 1.03717590736,2.31562 2.31561990736,2.31562 l 0,0 41.4814886,0 c 1.278444,0 2.31562,-1.034403 2.31562,-2.31562 l 0,0 0,-9.112727 c 0,-1.281218 -1.037176,-2.31562 -2.31562,-2.31562 l 0,0 -26.112428,0 c -1.278444,0 -2.31562,-1.039949 -2.31562,-2.31562 l 0,0 0,-14.853246 c 0,-1.281217 1.037176,-2.318393 2.31562,-2.318393 l 0,0 16.910958,0 c 1.278444,0 2.318393,-1.037176 2.318393,-2.318393 l 0,0 0,-9.004572 c 0,-1.278445 -1.039949,-2.31562 -2.318393,-2.31562 l 0,0 -16.910958,0 c -1.278444,0 -2.31562,-1.037176 -2.31562,-2.31562 l 0,0 0,-10.524285 c 0,-1.278444 1.037176,-2.31562 2.31562,-2.31562 l 0,0 26.112428,0 c 1.278444,0 2.31562,-1.037176 2.31562,-2.31562 l 0,0 0,-9.1154998 c 0,-1.2784441 -1.037176,-2.3156199 -2.31562,-2.3156199 l 0,0 -41.4814886,0 z M 503.20224,9.5248102 c -1.20357,0 -2.17419,0.9733918 -2.17419,2.1741868 l 0,0 0,14.487184 c 0,1.200794 -0.97339,2.174187 -2.17419,2.174187 l 0,0 -3.01169,0 c -1.20357,0 -2.17419,0.973392 -2.17419,2.174186 l 0,0 0,9.725604 c 0,1.198021 0.97062,2.171414 2.17419,2.171414 l 0,0 3.01169,0 c 1.2008,0 2.17419,0.973392 2.17419,2.174187 l 0,0 0,34.407061 c 0,1.198021 0.97062,2.171414 2.17419,2.171414 l 0,0 10.80715,0 c 1.20079,0 2.17418,-0.973393 2.17418,-2.171414 l 0,0 0,-34.407061 c 0,-1.200795 0.9734,-2.174187 2.17419,-2.174187 l 0,0 3.11985,0 c 1.20079,0 2.17418,-0.973393 2.17418,-2.171414 l 0,0 0,-9.725604 c 0,-1.200794 -0.97339,-2.174186 -2.17418,-2.174186 l 0,0 -3.11985,0 c -1.20079,0 -2.17419,-0.973393 -2.17419,-2.174187 l 0,0 0,-14.487184 c 0,-1.200795 -0.97339,-2.1741868 -2.17418,-2.1741868 l 0,0 -10.80715,0 z M 344.43668,35.354372 c -1.06214,1.231299 -0.88465,3.092115 0.41875,4.062734 l 0,0 6.24802,4.656199 c 1.14255,0.848598 2.70664,0.654474 3.68835,-0.371609 l 0,0 c 2.09099,-2.182506 4.86141,-3.327837 8.10606,-3.327837 l 0,0 c 5.84312,0 9.415,3.463724 9.415,8.660696 l 0,0 0,1.733248 c -4.00172,-0.757083 -8.33623,-1.297856 -12.77335,-1.297856 l 0,0 c -14.7229,0 -21.86389,8.549768 -21.86389,17.318618 l 0,0 c 0,7.90084 5.95129,15.479989 17.64309,15.479989 l 0,0 c 9.41778,0 15.80445,-4.980663 18.83555,-10.066707 l 0,0 c 2.37941,5.521436 6.8193,8.982387 13.31412,8.982387 l 0,0 3.03388,0 c 1.25072,0 2.27125,-1.014991 2.27125,-2.271249 l 0,0 0,-9.201469 c 0,-1.256259 -1.02053,-2.271249 -2.27125,-2.271249 l 0,0 c -1.73602,0 -3.14203,-1.408785 -3.14203,-3.13926 l 0,0 0,-15.91538 c 0,-12.665193 -8.98516,-21.431271 -23.70529,-21.431271 l 0,0 c -10.36621,0 -16.45616,5.210839 -19.21826,8.400016 m 8.608,30.133564 c 0,-4.328962 4.76713,-6.383901 10.93195,-6.383901 l 0,0 c 2.06048,0 5.52421,0.540774 8.33623,1.081547 l 0,0 c -1.94956,5.737746 -6.71114,10.174862 -13.09781,10.174862 l 0,0 c -4.0045,0 -6.17037,-1.946785 -6.17037,-4.872508 M 290.03486,35.612279 c 0.21631,-1.514166 0.32447,-2.812022 0.32447,-3.680033 l 0,0 0,-3.571878 -12.74839,0 c -1.32836,0 -2.40714,1.076 -2.40714,2.404362 l 0,0 0,48.015141 c 0,1.328362 1.07878,2.404363 2.40714,2.404363 l 0,0 10.34403,0 c 1.32836,0 2.40436,-1.076001 2.40436,-2.404363 l 0,0 0,-28.555614 c 0.21631,-7.035602 5.30512,-10.715635 9.8504,-10.715635 l 0,0 c 5.08881,0 9.74501,3.788187 9.74501,11.151027 l 0,0 0,28.120222 c 0,1.328362 1.076,2.404363 2.40436,2.404363 l 0,0 10.45219,0 c 1.32836,0 2.40436,-1.076001 2.40436,-2.404363 l 0,0 0,-28.98546 c 0,-14.182132 -8.22531,-22.7319 -19.16002,-22.7319 l 0,0 c -7.25192,0 -12.55704,3.569105 -16.02077,8.549768 m 278.21827,19.05464 c 0,15.369061 11.25918,27.49348 27.17179,27.49348 l 0,0 c 8.46657,0 14.60366,-3.225229 19.72021,-9.345675 l 0,0 c 0.84028,-1.009444 0.71271,-2.506971 -0.33279,-3.302879 l 0,0 -7.78714,-5.934642 c -0.94011,-0.718259 -2.25738,-0.571279 -3.05051,0.302278 l 0,0 c -2.16032,2.379404 -4.98899,3.993405 -8.54977,3.993405 l 0,0 c -7.03838,0 -12.01627,-5.088818 -12.01627,-13.205967 l 0,0 c 0,-7.795458 4.97789,-13.425049 12.01627,-13.425049 l 0,0 c 3.51087,0 5.74052,1.350547 7.90361,3.422126 l 0,0 c 0.87356,0.840279 2.24352,0.879103 3.13094,0.05546 l 0,0 7.19922,-6.67786 c 0.97062,-0.901289 0.93734,-2.415455 -0.0133,-3.33893 l 0,0 c -4.83091,-4.689477 -10.89035,-7.534777 -18.32806,-7.534777 l 0,0 c -15.80445,0 -27.06364,12.127192 -27.06364,27.499026 m -513.58508,0 c 0,15.693525 12.12442,27.49348 27.604408,27.49348 l 0,0 c 15.479989,0 27.601632,-11.799955 27.601632,-27.49348 l 0,0 c 0,-15.696298 -12.121643,-27.499026 -27.601632,-27.499026 l 0,0 c -15.479988,0 -27.604408,11.802728 -27.604408,27.499026 m 14.720133,0 c 0,-8.011768 5.088817,-13.965823 12.884275,-13.965823 l 0,0 c 7.681757,0 12.773348,5.954055 12.773348,13.965823 l 0,0 c 0,8.117149 -5.091591,14.071204 -12.773348,14.071204 l 0,0 c -7.576375,0 -12.884275,-5.954055 -12.884275,-14.071204 M 629.95733,43.188655 c 0,10.718408 10.17209,15.266452 18.40016,17.645855 l 0,0 c 4.43989,1.297857 7.14653,2.595713 7.14653,5.305127 l 0,0 c 0,1.946785 -2.38217,3.247414 -5.62681,3.247414 l 0,0 c -4.17089,0 -8.84928,-1.164743 -12.4267,-3.904662 l 0,0 c -1.32282,-1.012217 -3.17531,-0.901289 -4.26241,0.363289 l 0,0 -4.57854,5.332859 c -1.10651,1.286764 -0.96508,3.247414 0.33001,4.351147 l 0,0 c 5.46597,4.661745 12.47938,6.73887 20.82671,6.73887 l 0,0 c 11.90811,0 20.45788,-6.930221 20.45788,-16.888773 l 0,0 c 0,-10.063934 -10.28302,-15.044596 -18.29479,-17.426773 l 0,0 c -4.76158,-1.406011 -7.79268,-2.703868 -7.79268,-5.305127 l 0,0 c 0,-2.054939 2.05771,-3.352796 4.86973,-3.352796 l 0,0 c 2.35167,0 5.31068,1.270125 7.60134,2.959002 l 0,0 c 1.25626,0.923475 2.99782,0.765403 4.05718,-0.377155 l 0,0 4.33729,-4.670064 c 1.1897,-1.281218 1.08432,-3.322291 -0.25514,-4.442663 l 0,0 c -4.27072,-3.571878 -9.32626,-5.485384 -16.06236,-5.485384 l 0,0 c -8.877,0 -18.7274,5.734972 -18.7274,15.909834 m -506.76302,0 c 0,10.718408 10.17209,15.266452 18.40017,17.645855 l 0,0 c 4.43989,1.297857 7.14653,2.595713 7.14653,5.305127 l 0,0 c 0,1.946785 -2.38218,3.247414 -5.62959,3.247414 l 0,0 c -4.39275,0 -9.35123,-1.29231 -12.98966,-4.359466 l 0,0 c -0.96507,-0.81532 -2.40159,-0.693299 -3.22246,0.266227 l 0,0 -5.54085,6.450457 c -0.8375,0.976166 -0.70162,2.426548 0.25236,3.291786 l 0,0 c 5.5464,5.011168 12.75671,7.232499 21.39245,7.232499 l 0,0 c 11.90534,0 20.45788,-6.930221 20.45788,-16.888773 l 0,0 c 0,-10.063934 -10.28302,-15.044596 -18.29479,-17.426773 l 0,0 c -4.76158,-1.406011 -7.79268,-2.703868 -7.79268,-5.305127 l 0,0 c 0,-2.054939 2.05771,-3.352796 4.86973,-3.352796 l 0,0 c 2.51529,0 5.71556,1.453156 8.05892,3.311198 l 0,0 c 0.94288,0.743217 2.27402,0.696073 3.09211,-0.180147 l 0,0 5.37446,-5.790436 c 0.90129,-0.967846 0.79591,-2.482012 -0.19413,-3.361116 l 0,0 c -4.39551,-3.899115 -9.60081,-5.995653 -16.65582,-5.995653 l 0,0 c -8.87423,0 -18.72463,5.734973 -18.72463,15.909835 M 539.39579,28.360479 c -1.04272,0 -1.88577,0.845825 -1.88577,1.888547 l 0,0 0,49.049544 c 0,1.042722 0.84305,1.885774 1.88577,1.885774 l 0,0 11.70289,0 c 1.04273,0 1.89133,-0.843052 1.89133,-1.885774 l 0,0 0,-49.049544 c 0,-1.042722 -0.8486,-1.888547 -1.89133,-1.888547 l 0,0 -11.70289,0 z m -67.04482,0 c -0.79591,0 -1.51417,0.474216 -1.82754,1.203567 l 0,0 -10.08889,23.47789 c -0.97617,2.274022 -1.94956,5.196972 -1.94956,5.413282 l 0,0 c -0.11093,-0.324464 -0.86524,-3.250188 -1.73325,-5.413282 l 0,0 -9.66459,-23.450158 c -0.30783,-0.74599 -1.0344,-1.231299 -1.8414,-1.231299 l 0,0 -11.5892,0 c -1.42265,0 -2.38495,1.447609 -1.83585,2.759331 l 0,0 17.424,41.545272 c 0.71548,1.708289 0.69884,3.635662 -0.0473,5.327312 l 0,0 -13.38068,30.388696 c -0.48808,1.10928 0.32447,2.35722 1.53913,2.35722 l 0,0 12.13274,0 c 0.66556,0 1.26735,-0.39102 1.53912,-1.00112 l 0,0 34.79531,-78.581328 c 0.58237,-1.317269 -0.37993,-2.795383 -1.81922,-2.795383 l 0,0 -11.65297,0 z"
     inkscape:connector-curvature="0" />
</svg>
